# xmcd CD database file
#
# Track frame offsets:
#	150
#	14609
#	27463
#	42166
#	56336
#	68462
#	87215
#	99931
#	110310
#	119751
#	133318
#	146339
#	158481
#	172172
#	190488
#	201137
#	218968
#	231720
#	243762
#	262890
#	272240
#
# Disc length: 3807 seconds
#
# Revision: 0
# Processed by: cddbd v1.5.2PL0 Copyright (c) Steve Scherf et al.
# Submitted via: CDex 1.96
#
DISCID=310edd15
DTITLE=Colin Hunter - Encore (feat. Le Grand Orchestre de Roland Martel)
DYEAR=2017
DGENRE=Jazz
TTITLE0=Beyond the Sea
TTITLE1=Come Dance With Me
TTITLE2=Mack the Knife
TTITLE3=Don't worry 'Bout Me
TTITLE4=Too Marvelous For Words
TTITLE5=It's Impossible
TTITLE6=Witchcraft
TTITLE7=Street of Dreams
TTITLE8=The Shadow of Your Smile
TTITLE9=They Can't take that Away From Me
TTITLE10=Fools Rush In
TTITLE11=It Had To Be You
TTITLE12=Dance Ballerina Dance
TTITLE13=All the Way
TTITLE14=Call Me Irresponsible
TTITLE15=Cheek to Cheek
TTITLE16=Up A Lazy River
TTITLE17=Walkin' My Baby Back Home
TTITLE18=Quando Quando Quando
TTITLE19=I Love Paris
TTITLE20=The One I Love (Belongs To Somebody Else)
EXTD=YEAR: 2017
EXTT0=
EXTT1=
EXTT2=
EXTT3=
EXTT4=
EXTT5=
EXTT6=
EXTT7=
EXTT8=
EXTT9=
EXTT10=
EXTT11=
EXTT12=
EXTT13=
EXTT14=
EXTT15=
EXTT16=
EXTT17=
EXTT18=
EXTT19=
EXTT20=
PLAYORDER=
